<?xml version="1.0" encoding="UTF-8"?>
<svg width="117px" height="120px" viewBox="0 0 117 120" version="1.1" xmlns="http://www.w3.org/2000/svg" xmlns:xlink="http://www.w3.org/1999/xlink">
    <!-- Generator: Sketch 52.1 (67048) - http://www.bohemiancoding.com/sketch -->
    <title>d9c5e979</title>
    <desc>Created with Sketch.</desc>
    <g id="Page-1" stroke="none" stroke-width="1" fill="none" fill-rule="evenodd">
        <g id="d9c5e979">
            <polygon id="Path" points="46.573 8.182 94.306 23.099 94.306 46.459 78.514 51.6 78.514 29.398 28.821 13.557"></polygon>
            <path d="M116.014,19.464 C115.916919,19.0427969 115.690724,18.6624256 115.367,18.376 C115.225325,18.2338643 115.067599,18.1086899 114.897,18.003 C114.800377,17.9465134 114.700163,17.8964064 114.597,17.853 C114.549,17.825 96.013,11.913 58.988,0.118 C58.4915584,-0.0397144273 57.9584416,-0.0397144273 57.462,0.118 L2.075,17.742 C1.02834933,18.0714405 0.315541535,19.0407297 0.313,20.138 L0.313,80.561 C0.313,81.659 1.027,82.631 2.075,82.961 L21.526,89.536 C21.856,89.641 22.399,88.178 23.152,85.147 L5.348,78.72 L5.348,21.98 L22.133,16.64 L69.213,31.622 L58.218,35.119 L16.174,21.746 C15.3169198,21.4734063 14.3795181,21.6787662 13.714905,22.2847226 C13.0502919,22.890679 12.7594379,23.8051726 12.951905,24.6837226 C13.1443721,25.5622726 13.7909198,26.2714064 14.648,26.544 L55.7,39.602 L55.7,69.526 C55.7273224,70.8968242 56.8464035,71.9938228 58.2175,71.9938228 C59.5885965,71.9938228 60.7076776,70.8968242 60.735,69.526 L60.735,39.602 L75.003,35.07 L75.003,51.772 C75.0036825,52.573372 75.3857766,53.3265658 76.0320261,53.8004426 C76.6782756,54.2743194 77.5114996,54.4122847 78.276,54.172 L84.149,52.298 C85.4739311,51.8766067 86.2063933,50.4609311 85.785,49.136 C85.3636067,47.8110689 83.9479311,47.0786067 82.623,47.5 L80.03,48.325 L80.03,33.472 L93.036,29.332 L93.036,44.186 L90.176,45.096 C88.9938924,45.4712851 88.2613466,46.6517437 88.4498604,47.8775821 C88.6383742,49.1034205 89.6917542,50.009233 90.932,50.012 C91.188,50.012 91.442,49.972 91.687,49.894 L96.304,48.426 C97.3522521,48.0963881 98.0655213,47.1248523 98.066,46.026 L98.066,27.722 L111.087,23.583 L111.087,78.719 L107.815,79.764 C106.93521,79.9965521 106.249351,80.68571 106.021024,81.5666055 C105.792696,82.4475011 106.057431,83.3830525 106.713481,84.0136936 C107.369532,84.6443348 108.314806,84.8719276 109.186,84.609 C109.217,84.599 110.942,84.051 114.361,82.961 C115.409252,82.6313881 116.122521,81.6598523 116.123,80.561 L116.123,20.139 C116.117448,19.9104254 116.080777,19.6836731 116.014,19.465 L116.014,19.464 Z M77.518,28.978 L30.438,13.998 L40.177,10.898 L87.256,25.878 L77.518,28.978 Z M95.558,23.238 L48.483,8.255 L58.219,5.159 L105.298,20.139 L95.56,23.238 L95.558,23.238 Z" id="Shape" fill="#434A54" fill-rule="nonzero"></path>
            <path d="M13.345,63 C12.0498923,63 11,64.0498923 11,65.345 L11,82.379 C11,83.6741077 12.0498923,84.724 13.345,84.724 C14.6401077,84.724 15.69,83.6741077 15.69,82.379 L15.69,65.345 C15.69,64.0498923 14.6401077,63 13.345,63 Z M13.344,56 C12.727,56 12.123,56.25 11.687,56.687 C11.2483832,57.1283065 11.0015214,57.7247992 11,58.347 C11,58.96 11.25,59.565 11.687,60.003 C12.1278718,60.4400631 12.7232016,60.6858118 13.344,60.687 C13.9643096,60.6858152 14.5592125,60.4404537 15,60.004 C15.436,59.566 15.687,58.964 15.687,58.347 C15.687,57.728 15.436,57.124 15,56.687 C14.5598,56.249172 13.9648573,56.002357 13.344,56 Z M22.344,85 C21.727,85 21.123,85.25 20.687,85.687 C20.2483832,86.1283065 20.0015214,86.7247992 20,87.347 C20,87.96 20.25,88.565 20.687,89.003 C21.1278718,89.4400631 21.7232016,89.6858118 22.344,89.687 C22.9643096,89.6858152 23.5592125,89.4404537 24,89.004 C24.436,88.566 24.686,87.964 24.686,87.347 C24.686,86.728 24.436,86.124 24,85.687 C23.5598,85.249172 22.9648573,85.002357 22.344,85 Z M98.5,53.47 C97.1097374,53.4699999 95.9825521,54.5967375 95.982,55.987 L95.982,82.233 C95.968,94.741 85.832,104.878 73.323,104.892 L43.113,104.892 C41.7227374,104.892 40.5955521,106.018738 40.595,107.409 L40.595,112.644 L22.327,99.857 L40.595,87.07 L40.595,92.304 C40.5955519,93.6938721 41.7221279,94.8204481 43.112,94.821 L65.771,94.821 C74.11,94.813 80.868,88.055 80.876,79.716 L80.876,78.646 C80.8486776,77.2751758 79.7295965,76.1781772 78.3585,76.1781772 C76.9874035,76.1781772 75.8683224,77.2751758 75.841,78.646 L75.841,79.716 C75.841,85.277 71.332,89.786 65.771,89.786 L45.63,89.786 L45.63,82.233 C45.6291772,81.2949302 45.1069607,80.4350877 44.27493,80.0018434 C43.4428993,79.5685992 42.4390121,79.6337887 41.67,80.171 L16.493,97.795 C15.8201444,98.2660036 15.4194144,99.0356723 15.4194144,99.857 C15.4194144,100.678328 15.8201444,101.447996 16.493,101.919 L41.67,119.542 C42.4388621,120.079979 43.4431557,120.145579 44.2754672,119.712188 C45.1077788,119.278798 45.6298919,118.418387 45.63,117.48 L45.63,109.927 L73.323,109.927 C88.611,109.909 100.999,97.521 101.017,82.233 L101.017,55.987 C101.017,54.596347 99.889653,53.469 98.499,53.469 L98.5,53.47 Z" id="Shape" fill="#434A54" fill-rule="nonzero"></path>
        </g>
    </g>
</svg>